<?xml version="1.0" encoding="utf-8"?>
<!-- Generator: Adobe Illustrator 22.1.0, SVG Export Plug-In . SVG Version: 6.00 Build 0)  -->
<svg version="1.1" id="Layer_2" xmlns="http://www.w3.org/2000/svg" xmlns:xlink="http://www.w3.org/1999/xlink" x="0px" y="0px"
	 viewBox="0 0 2000 800" style="enable-background:new 0 0 2000 800;" xml:space="preserve">
<style type="text/css">
	.st0{fill:#FFFFFF;}
</style>
<g id="clouds">
	<path class="st0" d="M754.6,191.7c0,10.5-8.5,19-19,19c-6.1,0-11.5-2.8-14.9-7.3c-3,6.4-9.6,10.9-17.1,10.9c-6.3,0-11.9-3-15.3-7.8
		c-3.5,4.7-9,7.8-15.3,7.8c-7.8,0-14.6-4.7-17.4-11.5c-4,3.7-9.4,5.9-15.2,5.9c-12.4,0-22.5-10.1-22.5-22.5s10.1-22.5,22.5-22.5
		c1,0,2.1,0.1,3.1,0.2c0-0.1,0-0.2,0-0.2c0-12.4,10.1-22.5,22.5-22.5c9.2,0,17.2,5.6,20.7,13.6c5-5.6,12.2-9.2,20.3-9.2
		c15,0,27.1,12.1,27.1,27.1v0.1c0.6,0,1.1-0.1,1.7-0.1C746.2,172.8,754.6,181.3,754.6,191.7z"/>
	<path class="st0" d="M1966.6,128.8c0,10.5-8.5,19-19,19c-6.1,0-11.5-2.8-14.9-7.3c-3,6.4-9.6,10.9-17.1,10.9
		c-6.3,0-11.9-3-15.3-7.8c-3.5,4.7-9,7.8-15.3,7.8c-7.8,0-14.6-4.7-17.4-11.5c-4,3.7-9.4,5.9-15.2,5.9c-12.4,0-22.5-10.1-22.5-22.5
		s10.1-22.5,22.5-22.5c1,0,2.1,0.1,3.1,0.2c0-0.1,0-0.2,0-0.2c0-12.4,10.1-22.5,22.5-22.5c9.2,0,17.2,5.6,20.7,13.6
		c5-5.6,12.2-9.2,20.3-9.2c15,0,27.1,12.1,27.1,27.1v0.1c0.6,0,1.1-0.1,1.7-0.1C1958.1,109.8,1966.6,118.3,1966.6,128.8z"/>
	<path class="st0" d="M1981.2,428c0,10.5-8.5,19-19,19c-6.1,0-11.5-2.8-14.9-7.3c-3,6.4-9.6,10.9-17.1,10.9c-6.3,0-11.9-3-15.3-7.8
		c-3.5,4.7-9,7.8-15.3,7.8c-7.8,0-14.6-4.7-17.4-11.5c-4,3.7-9.4,5.9-15.2,5.9c-12.4,0-22.5-10.1-22.5-22.5s10.1-22.5,22.5-22.5
		c1,0,2.1,0.1,3.1,0.2c0-0.1,0-0.2,0-0.2c0-12.4,10.1-22.5,22.5-22.5c9.2,0,17.2,5.6,20.7,13.6c5-5.6,12.2-9.2,20.3-9.2
		c15,0,27.1,12.1,27.1,27.1v0.1c0.6,0,1.1-0.1,1.7-0.1C1972.8,409,1981.2,417.5,1981.2,428z"/>
	<path class="st0" d="M191.3,279.7c0,9.7-7.9,17.6-17.6,17.6c-3.4,0-6.5-0.9-9.2-2.6c-5.3,5-12.4,8.1-20.2,8.1
		c-6.7,0-12.8-2.2-17.8-6c-4,4.4-9.8,7.2-16.2,7.2c-8.1,0-15.2-4.4-18.9-11c-3.7,2.7-8.3,4.3-13.2,4.3c-12.5,0-22.7-10.1-22.7-22.6
		S65.6,252,78.2,252c4,0,7.8,1,11,2.9c2.3-9.7,11.1-16.9,21.5-16.9c7.8,0,14.7,4,18.6,10.2c4.4-2.6,9.5-4.1,14.9-4.1
		c12.2,0,22.8,7.5,27.2,18.2c0.7-0.1,1.5-0.1,2.2-0.1C183.4,262.1,191.3,270,191.3,279.7z"/>
	<path class="st0" d="M1215.7,262.5c0,9.7-7.9,17.6-17.6,17.6c-3.4,0-6.5-0.9-9.2-2.6c-5.3,5-12.4,8.1-20.2,8.1
		c-6.7,0-12.8-2.2-17.8-6c-4,4.4-9.8,7.2-16.2,7.2c-8.1,0-15.2-4.4-18.9-11c-3.7,2.7-8.3,4.3-13.2,4.3c-12.5,0-22.6-10.1-22.6-22.6
		s10.1-22.7,22.6-22.7c4,0,7.8,1,11,2.9c2.3-9.7,11.1-16.9,21.6-16.9c7.8,0,14.7,4,18.6,10.2c4.4-2.6,9.5-4.1,14.9-4.1
		c12.2,0,22.8,7.5,27.2,18.2c0.7-0.1,1.5-0.1,2.2-0.1C1207.8,244.9,1215.7,252.8,1215.7,262.5z"/>
	<path class="st0" d="M1063.9,76.4c0,9.7-7.9,17.6-17.6,17.6c-3.4,0-6.5-0.9-9.2-2.6c-5.3,5-12.4,8.1-20.2,8.1
		c-6.7,0-12.8-2.2-17.8-6c-4,4.4-9.8,7.2-16.2,7.2c-8.1,0-15.2-4.4-18.9-11c-3.7,2.7-8.3,4.3-13.2,4.3c-12.5,0-22.7-10.1-22.7-22.6
		s10.1-22.7,22.7-22.7c4,0,7.8,1,11,2.9c2.3-9.7,11.1-16.9,21.5-16.9c7.8,0,14.7,4,18.6,10.2c4.4-2.6,9.5-4.1,14.9-4.1
		c12.2,0,22.8,7.5,27.2,18.2c0.7-0.1,1.5-0.1,2.2-0.1C1056,58.8,1063.9,66.7,1063.9,76.4z"/>
	<path class="st0" d="M414.3,315.6c-0.2,0.2-0.4,0.4-0.6,0.7c-0.1-0.4-0.2-0.8-0.4-1.2C413.6,315.3,414,315.5,414.3,315.6z"/>
	<path class="st0" d="M427.2,337.6c-1.6-10.5-10.6-18.5-21.5-18.5c-4.6,0-8.9,1.5-12.5,3.9v-0.1c0-16.1-13.1-29.2-29.2-29.2
		c-12.4,0-23,7.8-27.2,18.7c-0.6-0.1-1.3-0.1-2-0.1c-8.5,0-15.9,4.9-19.5,12c-2.4-0.9-5.1-1.4-7.8-1.4c-12,0-21.8,9.8-21.8,21.8
		s9.8,21.8,21.8,21.8c0.9,0,1.8,0,2.6-0.2c3.7,6.8,10.9,11.4,19.2,11.4c5,0,9.5-1.7,13.2-4.4c3.3,4.5,8.6,7.4,14.6,7.4
		c7.7,0,14.2-4.8,16.8-11.5c2.9,1.7,6.3,2.7,9.9,2.7c4.5,0,8.7-1.5,12-4.1c3.9,3.7,9.2,6,15,6c12,0,21.8-9.8,21.8-21.8
		C432.6,346.5,430.6,341.5,427.2,337.6z M350.1,349.6c-0.1-0.4-0.2-0.8-0.4-1.2c0.3,0.2,0.7,0.4,1,0.6
		C350.6,349.1,350.4,349.4,350.1,349.6z"/>
	<path class="st0" d="M1527.3,158.7c-1.6-10.5-10.6-18.5-21.5-18.5c-4.6,0-8.9,1.5-12.5,3.9V144c0-16.1-13.1-29.2-29.2-29.2
		c-12.4,0-23,7.8-27.2,18.7c-0.6-0.1-1.3-0.1-1.9-0.1c-8.5,0-15.9,4.9-19.5,12c-2.4-0.9-5.1-1.4-7.8-1.4c-12,0-21.8,9.8-21.8,21.8
		s9.8,21.8,21.8,21.8c0.9,0,1.8,0,2.6-0.2c3.7,6.8,10.9,11.4,19.2,11.4c4.9,0,9.5-1.7,13.2-4.4c3.3,4.5,8.6,7.4,14.6,7.4
		c7.6,0,14.2-4.8,16.8-11.5c2.9,1.7,6.3,2.7,9.9,2.7c4.5,0,8.7-1.5,12-4.1c3.9,3.7,9.2,6,15,6c12,0,21.8-9.8,21.8-21.8
		C1532.7,167.6,1530.7,162.6,1527.3,158.7z M1450.2,170.7c-0.1-0.4-0.2-0.8-0.4-1.2c0.3,0.2,0.7,0.4,1,0.6
		C1450.7,170.2,1450.5,170.5,1450.2,170.7z"/>
	<path class="st0" d="M1866,315.5c-1.6-10.5-10.6-18.5-21.6-18.5c-4.6,0-8.9,1.5-12.5,3.9v-0.1c0-16.1-13.1-29.2-29.2-29.2
		c-12.4,0-23,7.8-27.2,18.7c-0.6-0.1-1.3-0.1-1.9-0.1c-8.5,0-15.9,4.9-19.5,12c-2.4-0.9-5.1-1.4-7.8-1.4c-12,0-21.8,9.8-21.8,21.8
		s9.8,21.8,21.8,21.8c0.9,0,1.8,0,2.6-0.2c3.7,6.8,10.9,11.4,19.2,11.4c4.9,0,9.5-1.7,13.2-4.4c3.3,4.5,8.6,7.4,14.6,7.4
		c7.7,0,14.2-4.8,16.8-11.5c2.9,1.7,6.3,2.7,9.9,2.7c4.5,0,8.7-1.5,12-4.1c3.9,3.7,9.2,6,15,6c12,0,21.8-9.8,21.8-21.8
		C1871.5,324.4,1869.4,319.3,1866,315.5z M1789,327.4c-0.1-0.4-0.2-0.8-0.4-1.2c0.3,0.2,0.7,0.4,1,0.6
		C1789.4,327,1789.2,327.2,1789,327.4z"/>
	<path class="st0" d="M414.3,315.6c-0.2,0.2-0.4,0.4-0.6,0.7c-0.1-0.4-0.2-0.8-0.4-1.2C413.6,315.3,414,315.5,414.3,315.6z"/>
	<path class="st0" d="M1500,294.4c0,10.4-8.4,18.9-18.9,18.9c-0.2,0-0.5,0-0.7,0c-2.6,5.5-8.2,9.3-14.6,9.3
		c-8.9,0-16.2-7.2-16.2-16.2c0-0.3,0-0.6,0-0.9c-3.7,3.3-8.6,5.4-13.9,5.4c-7,0-13.3-3.5-17-8.9c-3,4.1-7.9,6.8-13.4,6.8
		c-9.2,0-16.6-7.4-16.6-16.6s7.4-16.6,16.6-16.6c2.2,0,4.2,0.4,6.1,1.2c0-0.4-0.1-0.8-0.1-1.2c0-5.8,4.7-10.5,10.5-10.5
		c3.8,0,7.2,2,9,5.1c1.5-0.4,3.1-0.6,4.8-0.6c3.2,0,6.2,0.7,8.9,2c2.7-3.5,7-5.8,11.8-5.8c7.5,0,13.7,5.4,14.8,12.6
		c2.9-1.8,6.3-2.8,9.9-2.8C1491.5,275.5,1500,284,1500,294.4z"/>
	<path class="st0" d="M355.7,97.1c0,10.4-8.4,18.9-18.9,18.9c-0.2,0-0.5,0-0.7,0c-2.6,5.5-8.2,9.3-14.6,9.3
		c-8.9,0-16.2-7.2-16.2-16.2c0-0.3,0-0.6,0-0.9c-3.7,3.3-8.6,5.4-13.9,5.4c-7,0-13.3-3.5-17-8.9c-3,4.1-7.9,6.8-13.4,6.8
		c-9.2,0-16.6-7.4-16.6-16.6s7.4-16.6,16.6-16.6c2.2,0,4.2,0.4,6.1,1.2c0-0.4-0.1-0.8-0.1-1.2c0-5.8,4.7-10.5,10.5-10.5
		c3.8,0,7.2,2,9,5.1c1.5-0.4,3.1-0.6,4.8-0.6c3.2,0,6.2,0.7,8.9,2c2.7-3.5,7-5.8,11.8-5.8c7.5,0,13.7,5.4,14.8,12.6
		c2.9-1.8,6.3-2.8,9.9-2.8C347.3,78.2,355.7,86.7,355.7,97.1z"/>
	<path class="st0" d="M270.1,67.9c-0.1,0.1-0.2,0.3-0.3,0.4c0-0.2-0.1-0.4-0.1-0.6C269.9,67.8,270,67.8,270.1,67.9z"/>
	<path class="st0" d="M317.4,141.6c0,7.9-5.8,14.4-13.3,15.6c-1.1,12.1-11.3,21.6-23.7,21.6c-8.5,0-15.9-4.4-20.1-11.1
		c0,0.4,0,0.9,0,1.3c0,12.2-9.9,22.2-22.2,22.2c-8,0-15-4.2-18.9-10.5c-3,4.9-8.4,8.2-14.6,8.2c-9.4,0-17-7.6-17-17
		c0-0.6,0-1.1,0.1-1.7c-0.7,0.1-1.4,0.1-2.2,0.1c-10.5,0-19.1-6.9-19.1-15.4s8.5-15.4,19.1-15.4c3.7,0,7.1,0.8,10,2.3
		c0.3-1,0.7-1.9,1.2-2.8c-1.2-2.5-1.9-5.4-1.9-8.3c0-10.6,8.6-19.2,19.2-19.2c10.6,0,19.2,8.6,19.2,19.2c0,0.2,0,0.3,0,0.4
		c3.8-3.3,8.8-5.3,14.3-5.3c4,0,7.8,1.1,11.1,3c2.8-4.9,8-8.3,14.1-8.3c7.4,0,13.7,5,15.6,11.9c0.1,0.2,0.1,0.4,0.1,0.6
		c0.1-0.1,0.2-0.3,0.3-0.4c2.8-4.1,7.6-6.8,12.9-6.8C310.3,125.8,317.4,132.8,317.4,141.6z"/>
</g>
</svg>
