<?xml version="1.0" encoding="UTF-8" standalone="no"?>
<!-- Generator: Adobe Illustrator 22.1.0, SVG Export Plug-In . SVG Version: 6.00 Build 0)  -->

<svg
   xmlns:dc="http://purl.org/dc/elements/1.1/"
   xmlns:cc="http://creativecommons.org/ns#"
   xmlns:rdf="http://www.w3.org/1999/02/22-rdf-syntax-ns#"
   xmlns:svg="http://www.w3.org/2000/svg"
   xmlns="http://www.w3.org/2000/svg"
   xmlns:sodipodi="http://sodipodi.sourceforge.net/DTD/sodipodi-0.dtd"
   xmlns:inkscape="http://www.inkscape.org/namespaces/inkscape"
   version="1.1"
   x="0px"
   y="0px"
   viewBox="0 0 2000 800"
   style="enable-background:new 0 0 2000 800;"
   xml:space="preserve"
   id="svg5300"
   sodipodi:docname="pgh.svg"
   inkscape:version="0.92.2 5c3e80d, 2017-08-06"><metadata
     id="metadata5306"><rdf:RDF><cc:Work
         rdf:about=""><dc:format>image/svg+xml</dc:format><dc:type
           rdf:resource="http://purl.org/dc/dcmitype/StillImage" /></cc:Work></rdf:RDF></metadata><defs
     id="defs5304" /><sodipodi:namedview
     pagecolor="#ffffff"
     bordercolor="#666666"
     borderopacity="1"
     objecttolerance="10"
     gridtolerance="10"
     guidetolerance="10"
     inkscape:pageopacity="0"
     inkscape:pageshadow="2"
     inkscape:window-width="1440"
     inkscape:window-height="785"
     id="namedview5302"
     showgrid="false"
     inkscape:zoom="0.32420846"
     inkscape:cx="770.42508"
     inkscape:cy="97.490563"
     inkscape:window-x="0"
     inkscape:window-y="1"
     inkscape:window-maximized="1"
     inkscape:current-layer="bridges" /><style
     type="text/css"
     id="style4925">
	.st0{display:none;}
	.st1{display:inline;fill:#9FD2F4;}
	.st2{display:inline;fill:#FFFFFF;}
	.st3{fill:#666566;}
	.st4{fill:#2D476D;}
	.st5{fill:#2D6B42;}
	.st6{fill:#145182;}
	.st7{fill:#C1AAFF;}
	.st8{fill:none;}
	.st9{fill:#838BC5;}
	.st10{fill:#6395E5;}
	.st11{fill:#BC428B;}
	.st12{fill:#C45B9E;}
	.st13{fill:#A0387B;}
	.st14{fill:#AF388B;}
	.st15{fill:#F44D69;}
	.st16{fill:#F4718E;}
	.st17{fill:#E04163;}
	.st18{fill:#E84669;}
	.st19{fill:#EF5B7B;}
	.st20{fill:#AF3E91;}
	.st21{fill:#FFCC3E;}
	.st22{fill:none;stroke:#FFCC3E;stroke-width:5;stroke-miterlimit:10;}
	.st23{fill:none;stroke:#FFCC33;stroke-width:7;stroke-miterlimit:10;}
</style><g
     id="ground"><rect
       x="-9.8000002"
       y="695"
       class="st3"
       width="2011.7"
       height="105"
       id="rect4966"
       style="fill:#666566" /></g><g
     id="background"><polygon
       class="st4"
       points="1566.4,700.2 1566.4,695 1588.3,700.2 "
       id="polygon4969"
       style="fill:#2d476d" /><path
       class="st5"
       d="m 1899.9,517.1 c -78.2,0 -177.6,35.3 -233.6,37 -19.5,0.8 -37.8,0.2 -53.9,-1.1 -29.6,-8.8 -112.9,-32.9 -144.6,-34.2 -25.4,1.6 -27.8,7.8 -81.5,5.4 -53.7,-2.4 -81.1,109.2 -81.1,109.2 l 261.1,61.7 21.9,5.2 H 2000 V 540.6 c 0,-0.1 -45.1,-24.7 -100.1,-23.5 z m -356.2,23.5 v 0.5 c -0.6,-0.3 -0.6,-0.5 0,-0.5 z"
       id="path4971"
       inkscape:connector-curvature="0"
       style="fill:#2d6b42" /><path
       class="st5"
       d="m 1543.7,540.6 v 0.5 c -0.6,-0.3 -0.6,-0.5 0,-0.5 z"
       id="path4973"
       inkscape:connector-curvature="0"
       style="fill:#2d6b42" /><polygon
       class="st5"
       points="1589.1,700.3 1588.3,700.2 1589.1,700.2 "
       id="polygon4975"
       style="fill:#2d6b42" /><path
       class="st5"
       d="m 1543.7,540.6 v 0.5 c -0.6,-0.3 -0.6,-0.5 0,-0.5 z"
       id="path4977"
       inkscape:connector-curvature="0"
       style="fill:#2d6b42" /></g><g
     id="buildings_1"
     style="display:inline;fill:#c1aaff;fill-opacity:1"><polygon
       class="st7"
       points="1668.9,587 1668.9,601.5 1688.6,601.5 1688.6,611 1698.8,611 1698.8,698.3 1479.7,698.3 1479.7,543.3 1581.4,543.3 1581.4,533.9 1604.5,533.9 1604.5,543.3 1620.9,543.3 1620.9,561.3 1629.6,561.3 1629.6,591.3 1654.3,591.3 1654.3,587 "
       id="polygon4984"
       style="fill:#c1aaff;fill-opacity:1"
       transform="matrix(1,0,0,1.0093809,0,-5.0084549)" /><polygon
       class="st7"
       points="1482,608.3 1482,697.7 1472.8,697.7 1472.8,698.3 1406.7,698.3 1406.7,541.8 1450.8,541.8 1450.8,546.5 1458.5,546.5 1458.5,569.2 1472.8,569.2 1472.8,608.3 "
       id="polygon4986"
       style="fill:#c1aaff;fill-opacity:1" /><polygon
       class="st7"
       points="1170.5,457.4 1170.5,452.6 1187,452.6 1187,457.4 1190.6,457.4 1190.6,698.3 1105.1,698.3 1105.1,457.4 "
       id="polygon4988"
       style="fill:#c1aaff;fill-opacity:1" /><polygon
       class="st7"
       points="569.9,431.9 577,421 577.3,420.5 593,420.5 593,409 620.6,409 620.6,420.5 635.1,420.5 635.1,431.9 644,431.9 644,448.5 647.1,448.5 647.1,455.8 650.7,455.8 650.7,486.9 661.6,486.9 661.6,493.7 665.8,493.7 665.8,698.3 547.9,698.3 547.9,493.7 550.5,493.7 550.5,486.9 562.4,486.9 562.4,455.8 566.6,455.8 566.6,448.5 569.7,448.5 569.7,431.9 "
       id="polygon4990"
       style="fill:#c1aaff;fill-opacity:1" /><rect
       x="296.79999"
       y="667.59998"
       class="st8"
       width="106.4"
       height="30.700001"
       id="rect4992"
       style="fill:#c1aaff;fill-opacity:1" /><polygon
       class="st7"
       points="374.7,508.2 374.7,499.3 403.1,499.3 403.1,667.6 296.8,667.6 296.8,535.7 308.9,535.7 308.9,515.7 316.8,515.7 316.8,503.5 334.5,503.5 334.5,515.7 368.6,515.7 368.6,508.2 "
       id="polygon4994"
       style="fill:#c1aaff;fill-opacity:1" /><rect
       x="250.8"
       y="667.59998"
       class="st8"
       width="39.400002"
       height="30.700001"
       id="rect4996"
       style="fill:#c1aaff;fill-opacity:1" /><polygon
       class="st7"
       points="282.8,535.7 282.8,525.5 290.2,525.5 290.2,667.6 243.6,667.6 243.6,532 256.6,532 256.6,525.5 258.5,525.5 258.5,532 267.8,532 267.8,570.7 272.5,570.7 272.5,535.7 "
       id="polygon4998"
       style="fill:#c1aaff;fill-opacity:1" /><polygon
       class="st7"
       points="88.6,698.3 88.6,544.6 94.2,544.6 94.2,539.9 123.6,539.9 123.6,544.6 131.6,544.6 131.6,611.9 158.2,611.9 158.2,698.3 "
       id="polygon5000"
       style="fill:#c1aaff;fill-opacity:1" /><rect
       x="980.59998"
       y="477.20001"
       class="st7"
       width="73.400002"
       height="221.10001"
       id="rect5002"
       style="fill:#c1aaff;fill-opacity:1" /><rect
       style="fill:#c1aaff;fill-opacity:1"
       id="rect5344"
       width="106.14853"
       height="159.44199"
       x="1258.4514"
       y="540.45801" /><rect
       style="fill:#c1aaff;fill-opacity:1"
       id="rect5346"
       width="246.45584"
       height="205.01636"
       x="713.19519"
       y="492.47546" /><rect
       style="fill:#c1aaff;fill-opacity:1"
       id="rect5348"
       width="254.29652"
       height="114.731"
       x="390.4035"
       y="585.16901" /></g><g
     id="buildings_2"
     style="display:inline;fill:#838bc5;fill-opacity:1"><polygon
       class="st9"
       points="1338.4,409 1340.2,409 1340.2,404.8 1344.1,404.8 1344.1,389.1 1346.8,389.1 1346.8,404.8 1353.5,404.8 1353.5,409 1368.6,409 1368.6,417.9 1365.5,417.9 1365.5,422.1 1368.6,422.1 1368.6,435.5 1371.2,435.5 1371.2,494.2 1379.1,494.2 1379.1,698.3 1297.8,698.3 1297.8,494.2 1317,494.2 1317,435.5 1336.3,435.5 1336.3,422.1 1340.2,422.1 1340.2,417.9 1338.4,417.9 "
       id="polygon5005"
       style="fill:#838bc5;fill-opacity:1" /><path
       class="st9"
       d="M 1008.4,322.5 V 698.3 H 932.5 V 321.9 l 0.1,-0.2 4.5,-14.1 H 947 V 306 c 0,-6.6 5.4,-12 12,-12 h 8.4 v -2 H 957 v -2.3 h 27 v 2.3 h -10.2 v 2 h 8.4 c 6.6,0 12,5.4 12,12 v 1.7 h 9.7 v 0.1 h 0.2 l 4.1,14 z"
       id="path5007"
       inkscape:connector-curvature="0"
       style="fill:#838bc5;fill-opacity:1" /><polygon
       class="st9"
       points="738.6,289.8 740.7,289.8 740.7,295.5 738.6,295.5 738.6,301.1 740.7,301.1 740.7,306.7 738.6,306.7 738.6,312.3 740.7,312.3 740.7,317.9 738.6,317.9 738.6,323.5 740.7,323.5 740.7,329.1 738.6,329.1 738.6,334.8 740.7,334.8 740.7,340.4 738.6,340.4 738.6,346 740.7,346 740.7,351.6 738.6,351.6 738.6,357.2 740.7,357.2 740.7,362.8 738.6,362.8 738.6,368.4 740.7,368.4 740.7,374.1 738.6,374.1 738.6,379.7 740.7,379.7 740.7,385.3 738.6,385.3 738.6,390.9 740.7,390.9 740.7,396.5 738.6,396.5 738.6,402.1 740.7,402.1 740.7,407.8 738.6,407.8 738.6,413.4 740.7,413.4 740.7,419 738.6,419 738.6,424.6 740.7,424.6 740.7,430.2 738.6,430.2 738.6,435.8 740.7,435.8 740.7,441.4 738.6,441.4 738.6,447 740.7,447 740.7,452.7 738.6,452.7 738.6,458.3 740.7,458.3 740.7,463.9 738.6,463.9 738.6,469.5 740.7,469.5 740.7,475.1 738.6,475.1 738.6,480.7 740.7,480.7 740.7,486.4 738.6,486.4 738.6,492 740.7,492 740.7,497.6 738.6,497.6 738.6,503.2 740.7,503.2 740.7,508.8 738.6,508.8 738.6,514.4 740.7,514.4 740.7,520 738.6,520 738.6,525.6 740.7,525.6 740.7,531.3 738.6,531.3 738.6,536.9 740.7,536.9 740.7,542.5 738.6,542.5 738.6,548.1 740.7,548.1 740.7,553.7 738.6,553.7 738.6,559.3 740.7,559.3 740.7,565 738.6,565 738.6,570.6 740.7,570.6 740.7,576.2 738.6,576.2 738.6,581.8 740.7,581.8 740.7,587.4 738.6,587.4 738.6,593 740.7,593 740.7,598.6 738.6,598.6 738.6,604.2 740.7,604.2 740.7,609.9 738.6,609.9 738.6,615.5 740.7,615.5 740.7,621.1 738.6,621.1 738.6,626.7 740.7,626.7 740.7,632.3 738.6,632.3 738.6,637.9 740.7,637.9 740.7,643.6 738.6,643.6 738.6,649.2 740.7,649.2 740.7,654.8 738.6,654.8 738.6,661.3 740.7,661.3 740.7,666.9 738.6,666.9 738.6,673.5 740.7,673.5 740.7,679.1 738.6,679.1 738.6,685.6 740.7,685.6 740.7,691.2 738.6,691.2 738.6,698.3 626.5,698.3 626.5,289.6 631.3,289.6 631.3,284.2 626.5,284.2 626.5,259.4 646.5,259.4 646.5,253.8 689,253.8 689,259.4 713,259.4 713,253.8 722.6,253.8 722.6,259.4 740.7,259.4 740.7,264.5 738.6,264.5 738.6,269 740.7,269 740.7,274.6 738.6,274.6 738.6,278.6 740.7,278.6 740.7,284.2 735.4,284.2 735.4,289.6 738.6,289.6 "
       id="polygon5009"
       style="fill:#838bc5;fill-opacity:1" /><polygon
       class="st8"
       points="473.8,667.6 473.8,698.3 446.5,698.3 414.6,698.3 414.6,667.6 "
       id="polygon5011"
       style="fill:#838bc5;fill-opacity:1" /><polygon
       class="st9"
       points="495.8,371.3 497.5,371.3 497.5,386.3 522.9,423.9 522.9,453.1 525.8,453.1 525.8,499.3 537,499.3 537,505.3 542.3,505.3 542.3,667.6 414.6,667.6 414.6,528.7 450.8,528.7 450.8,576.6 465.7,576.6 465.7,453.1 468.9,453.1 468.9,423.9 495.8,386.2 "
       id="polygon5013"
       style="fill:#838bc5;fill-opacity:1" /><rect
       x="243.60001"
       y="667.59998"
       class="st8"
       width="7.1999998"
       height="30.700001"
       id="rect5015"
       style="fill:#838bc5;fill-opacity:1" /><rect
       x="163.39999"
       y="667.59998"
       class="st8"
       width="80.199997"
       height="30.700001"
       id="rect5017"
       style="fill:#838bc5;fill-opacity:1" /><polygon
       class="st9"
       points="163.4,471.3 170.2,471.3 182.8,455.5 231.2,455.5 244.2,471.3 250.8,471.3 250.8,667.6 163.4,667.6 "
       id="polygon5019"
       style="fill:#838bc5;fill-opacity:1" /><path
       style="fill:#838bc5;fill-opacity:1;stroke-width:1.21563888"
       d="M 1152.0365,530.11194 H 1254.594 V 698.98477 H 1152.0365 Z"
       id="rect5325"
       inkscape:connector-curvature="0" /><rect
       style="fill:#838bc5;fill-opacity:1"
       id="rect5328"
       width="115.98643"
       height="183.81363"
       x="709.09998"
       y="514.40002" /></g><g
     id="buildings_3"
     style="display:inline"><polygon
       class="st10"
       points="1576.1,580.7 1579.3,580.7 1579.3,584.7 1576.1,584.7 1576.1,588 1579.3,588 1579.3,592.1 1576.1,592.1 1576.1,595.4 1579.3,595.4 1579.3,599.5 1576.1,599.5 1576.1,602.8 1579.3,602.8 1579.3,606.8 1576.1,606.8 1576.1,610.1 1579.3,610.1 1579.3,614.2 1576.1,614.2 1576.1,617.5 1579.3,617.5 1579.3,621.5 1576.1,621.5 1576.1,624.9 1579.3,624.9 1579.3,628.9 1576.1,628.9 1576.1,632.2 1579.3,632.2 1579.3,636.3 1576.1,636.3 1576.1,639.6 1579.3,639.6 1579.3,643.6 1576.1,643.6 1576.1,647 1579.3,647 1579.3,651 1576.1,651 1576.1,654.3 1579.3,654.3 1579.3,658.4 1576.1,658.4 1576.1,661.7 1579.3,661.7 1579.3,665.7 1576.1,665.7 1576.1,669 1579.3,669 1579.3,673.1 1576.1,673.1 1576.1,676.4 1579.3,676.4 1579.3,680.5 1576.1,680.5 1576.1,683.8 1579.3,683.8 1579.3,687.8 1576.1,687.8 1576.1,691.1 1579.3,691.1 1579.3,695.2 1576.1,695.2 1576.1,698.3 1489.4,698.3 1489.4,695.2 1486.2,695.2 1486.2,691.1 1489.4,691.1 1489.4,687.8 1486.2,687.8 1486.2,683.8 1489.4,683.8 1489.4,680.5 1486.2,680.5 1486.2,676.4 1489.4,676.4 1489.4,673.1 1486.2,673.1 1486.2,669 1489.4,669 1489.4,665.7 1486.2,665.7 1486.2,661.7 1489.4,661.7 1489.4,658.4 1486.2,658.4 1486.2,654.3 1489.4,654.3 1489.4,651 1486.2,651 1486.2,647 1489.4,647 1489.4,643.6 1486.2,643.6 1486.2,639.6 1489.4,639.6 1489.4,636.3 1486.2,636.3 1486.2,632.2 1489.4,632.2 1489.4,628.9 1486.2,628.9 1486.2,624.9 1489.4,624.9 1489.4,621.5 1486.2,621.5 1486.2,617.5 1489.4,617.5 1489.4,614.2 1486.2,614.2 1486.2,610.1 1489.4,610.1 1489.4,606.8 1486.2,606.8 1486.2,602.8 1489.4,602.8 1489.4,599.5 1486.2,599.5 1486.2,595.4 1489.4,595.4 1489.4,592.1 1486.2,592.1 1486.2,588 1489.4,588 1489.4,584.7 1486.2,584.7 1486.2,580.7 1489.4,580.7 1489.4,577.4 1486.2,577.4 1486.2,573.3 1489.4,573.3 1489.4,570 1486.2,570 1486.2,566 1489.4,566 1489.4,562.6 1486.2,562.6 1486.2,558.6 1489.4,558.6 1489.4,554.8 1486.2,554.8 1486.2,550.7 1489.4,550.7 1489.4,546.9 1486.2,546.9 1486.2,542.8 1489.4,542.8 1489.4,539 1486.2,539 1486.2,534.9 1489.4,534.9 1489.4,531.1 1486.2,531.1 1486.2,527 1489.4,527 1489.4,523.2 1486.2,523.2 1486.2,519.1 1489.4,519.1 1489.4,515.3 1486.2,515.3 1486.2,511.2 1489.4,511.2 1489.4,508.8 1490.7,508.8 1490.7,506 1574.7,506 1574.7,508.8 1576.1,508.8 1576.1,511.2 1579.3,511.2 1579.3,515.3 1576.1,515.3 1576.1,519.1 1579.3,519.1 1579.3,523.2 1576.1,523.2 1576.1,527 1579.3,527 1579.3,531.1 1576.1,531.1 1576.1,534.9 1579.3,534.9 1579.3,539 1576.1,539 1576.1,542.8 1579.3,542.8 1579.3,546.9 1576.1,546.9 1576.1,550.7 1579.3,550.7 1579.3,554.8 1576.1,554.8 1576.1,558.6 1579.3,558.6 1579.3,562.6 1576.1,562.6 1576.1,566 1579.3,566 1579.3,570 1576.1,570 1576.1,573.3 1579.3,573.3 1579.3,577.4 1576.1,577.4 "
       id="polygon5022"
       style="fill:#6395e5"
       transform="matrix(1,0,0,1.0070174,0,-3.5507897)" /><polygon
       class="st10"
       points="1430.3,513 1430.3,516.9 1434.2,516.9 1434.2,526.5 1440.1,526.5 1440.1,520.8 1442.7,520.8 1442.7,526.5 1446.6,526.5 1446.6,698.3 1362.8,698.3 1362.8,526.5 1368.8,526.5 1368.8,516.9 1380.5,516.9 1380.5,513 1390,513 1390,516.9 1422.5,516.9 1422.5,513 "
       id="polygon5024"
       style="fill:#6395e5" /><path
       class="st10"
       d="m 1291.4,377.1 v 319 c 0,1.2 -1,2.2 -2.2,2.2 h -6.8 c -0.5,0 -1.1,-0.2 -1.4,-0.5 -0.5,0.3 -1.2,0.5 -1.8,0.5 h -75.7 c -2.3,0 -4.2,-1.9 -4.2,-4.2 V 326.7 c 0,-2.3 1.9,-4.2 4.2,-4.2 h 47.1 c 2.3,0 4.2,1.9 4.2,4.2 v 23.6 h 24.4 c 1.9,0 3.5,1.6 3.5,3.5 V 375 h 6.6 c 1.1,-0.1 2.1,0.9 2.1,2.1 z"
       id="path5026"
       inkscape:connector-curvature="0"
       style="fill:#6395e5" /><polygon
       class="st10"
       points="977.2,371.3 977.2,698.3 881.3,698.3 881.3,371.3 886.1,371.3 886.1,368.3 890.5,368.3 890.5,371.3 897.3,371.3 897.3,368.3 907.4,368.3 907.4,359.5 934.6,359.5 934.6,368.3 952.9,368.3 952.9,371.3 "
       id="polygon5028"
       style="fill:#6395e5" /><polygon
       class="st10"
       points="743,372.9 743,698.3 672.3,698.3 672.3,372.9 689,372.9 689,369 693.1,369 693.1,365.7 700,365.7 700,369 705,369 705,359.3 714.9,359.3 714.9,370.3 725.3,370.3 725.3,372.9 "
       id="polygon5030"
       style="fill:#6395e5" /><polygon
       class="st10"
       points="557.7,698.3 557.7,497.7 570.5,497.7 570.5,486.9 585.9,486.9 585.9,497.7 590.5,497.7 590.5,414 659.8,414 659.8,698.3 "
       id="polygon5032"
       style="fill:#6395e5;fill-opacity:1" /><rect
       style="fill:#6395e5;fill-opacity:1"
       id="rect5318"
       width="80.199997"
       height="159.46001"
       x="366.29999"
       y="538.83997" /><path
       style="fill:#6395e5;fill-opacity:1"
       d="m 149.40022,582.44275 -0.54526,-14.72192 h 69.7928 L 232.1,580.26172 V 699 H 115.59433 V 598.25518 Z"
       id="rect5320"
       inkscape:connector-curvature="0"
       sodipodi:nodetypes="cccccccc" /><rect
       style="fill:#6395e5;fill-opacity:1"
       id="rect5330"
       width="117.84908"
       height="198.99022"
       x="807.35095"
       y="500.80978" /><path
       style="fill:#6395e5;fill-opacity:1;stroke-width:1.43024719"
       d="m 1084.179,496.95424 h 67.8574 v 202.03053 h -67.8574 z"
       id="rect5332"
       inkscape:connector-curvature="0" /></g><g
     id="buildings_4"
     style="display:inline"><polygon
       class="st11"
       points="1544.6,430.2 1568.1,430.2 1568.1,699.9 1495.1,699.9 1495.1,430.2 1519.2,430.2 1519.2,418.8 1544.6,418.8 "
       id="polygon5035"
       style="fill:#bc428b" /><polygon
       class="st11"
       points="1445.4,587.7 1447,587.7 1447,583.5 1462.5,583.5 1462.5,579 1469,579 1469,583.5 1472.8,583.5 1472.8,587.7 1476.8,587.7 1476.8,699.9 1364.6,699.9 1364.6,587.7 1377.1,587.7 1377.1,579 1397.2,579 1397.2,577.5 1405.1,577.5 1405.1,579 1410.5,579 1410.5,577.5 1418.3,577.5 1418.3,579 1429.9,579 1429.9,587.7 1432.5,587.7 1432.5,577.5 1437.1,577.5 1437.1,587.7 1439.4,587.7 1439.4,579 1445.4,579 "
       id="polygon5037"
       style="fill:#bc428b" /><polygon
       class="st11"
       points="1174.4,645.4 1170.2,645.4 1170.2,640.9 1174.4,640.9 1174.4,636.5 1170.2,636.5 1170.2,632 1174.4,632 1174.4,627.6 1170.2,627.6 1170.2,623.1 1174.4,623.1 1174.4,618.7 1170.2,618.7 1170.2,614.2 1174.4,614.2 1174.4,609.8 1170.2,609.8 1170.2,605.3 1174.4,605.3 1174.4,600.9 1170.2,600.9 1170.2,596.4 1174.4,596.4 1174.4,592 1170.2,592 1170.2,587.5 1174.4,587.5 1174.4,583.1 1170.2,583.1 1170.2,578.6 1174.4,578.6 1174.4,574.2 1170.2,574.2 1170.2,569.8 1174.4,569.8 1174.4,565.3 1170.2,565.3 1170.2,560.9 1174.4,560.9 1174.4,556.4 1170.2,556.4 1170.2,552 1174.4,552 1174.4,547.5 1170.2,547.5 1170.2,543.1 1174.4,543.1 1174.4,538.6 1170.2,538.6 1170.2,534.2 1174.4,534.2 1174.4,529.7 1170.2,529.7 1170.2,525.3 1174.4,525.3 1174.4,520.5 1184.7,520.5 1184.7,510.6 1223.4,510.6 1223.4,520.5 1301.2,520.5 1301.2,535.3 1342.6,535.3 1342.6,544 1347.9,544 1347.9,699.9 1174.4,699.9 1174.4,691.8 1170.2,691.8 1170.2,687.4 1174.4,687.4 1174.4,681.9 1170.2,681.9 1170.2,677.5 1174.4,677.5 1174.4,672 1170.2,672 1170.2,667.6 1174.4,667.6 1174.4,663.1 1170.2,663.1 1170.2,658.7 1174.4,658.7 1174.4,654.2 1170.2,654.2 1170.2,649.8 1174.4,649.8 "
       id="polygon5039"
       style="fill:#bc428b" /><polygon
       class="st11"
       points="1086.1,269.8 1088.8,269.8 1088.8,261.9 1093,261.9 1093,269.8 1096.5,269.8 1096.5,254 1100.1,248.9 1103.4,254 1103.4,269.8 1106.9,269.8 1106.9,261.9 1109.8,261.9 1109.8,269.8 1112.4,269.8 1112.4,235.6 1119.8,220.8 1127.2,235.6 1127.2,253 1129.1,253 1129.1,269.8 1131.7,269.8 1131.7,239.3 1138.8,227.2 1145.9,239.3 1145.9,595 1165.3,595 1165.3,699.9 1034.9,699.9 1034.9,235.6 1041.5,220.8 1047.9,235.6 1048,235.6 1048,254 1050.9,254 1050.9,269.8 1053.3,269.8 1053.3,239.3 1060,228.2 1065.8,239.3 1065.8,269.8 1068.9,269.8 1068.9,261.9 1072.4,261.9 1072.4,269.8 1077.1,269.8 1077.1,250.4 1081.6,243.7 1086.1,250.4 "
       id="polygon5041"
       style="fill:#bc428b" /><polygon
       class="st11"
       points="768.8,367.9 774,364.1 774.2,364.4 774.2,351.5 802.3,305.2 802.3,316.2 805.7,316.2 805.7,245.1 808.5,245.1 808.5,316.2 826.8,351.5 826.8,379.3 835.3,383.5 840,385.9 840.8,386.2 842.3,387 842.3,387.1 847.9,393.9 854.7,402.3 854.7,423.9 858.9,426.5 877.3,437.6 877.3,454.9 906.5,477.6 941.9,477.6 941.9,699.8 842.3,699.8 842.3,699.9 840,699.9 701.7,699.9 701.7,514.4 709.1,514.4 709.1,478 718.3,478 718.3,472.6 747,472.6 747,460.3 754.4,460.3 754.4,376.3 766,376.3 766,361.8 768.8,361.8 768.8,367.9 767.4,368.9 768.5,370.4 768.8,370.1 "
       id="polygon5043"
       style="fill:#bc428b" /><polygon
       class="st11"
       points="840,699.9 842.3,699.9 "
       id="polygon5045"
       style="fill:#bc428b" /><rect
       x="842.29999"
       y="699.79999"
       class="st11"
       width="99.5"
       height="0.1"
       id="rect5047"
       style="fill:#bc428b" /><polygon
       class="st11"
       points="845.8,367.7 845.8,361.8 847.9,361.8 847.9,376.3 858.2,386.4 858.2,413.5 887.4,413.5 887.4,419.3 894.9,419.3 894.9,426.1 905.8,426.1 905.8,435.3 908.6,435.3 908.6,450.2 934.4,450.2 934.4,456.5 941.9,456.5 941.9,477.6 906.5,477.6 877.3,454.9 877.3,437.6 858.9,426.5 854.7,423.9 854.7,402.3 847.9,393.9 842.3,387.1 842.3,387 840.8,386.2 840,385.9 835.3,383.5 826.8,379.3 826.8,351.5 808.5,316.2 811.5,316.2 811.5,305.2 818.2,316.1 818.3,316.3 840,351.5 840,364.8 "
       id="polygon5049"
       style="fill:#bc428b" /><path
       class="st11"
       d="M 696.1,487 V 700 H 609.9 V 428.8 h 4.8 v 3.2 h 2.6 c 0,-0.1 0,-0.2 0,-0.2 0,-5.4 11.7,-9.7 26.2,-9.7 14.5,0 26.2,4.4 26.2,9.7 0,0.1 0,0.2 0,0.2 h 2.5 v -3.2 h 5.1 v 37 h 5.1 V 487 Z"
       id="path5051"
       inkscape:connector-curvature="0"
       style="fill:#bc428b" /><rect
       x="586.70001"
       y="514.40002"
       class="st11"
       width="58"
       height="185.5"
       id="rect5053"
       style="fill:#bc428b" /><polygon
       class="st11"
       points="593.3,599.4 600.2,599.4 600.2,699.9 543.9,699.9 543.9,602.4 541.8,602.4 541.8,591.4 560.9,591.4 560.9,534.9 583.2,534.9 583.2,591.4 593.3,591.4 "
       id="polygon5055"
       style="fill:#bc428b" /><path
       class="st11"
       d="m 144.4,590.38821 v 109.654 H 22.6 V 578.66484 h 11 v -19.80847 h 8.3 V 553.5 H 49 v 5.35637 H 62.1 V 553.5 h 7.1 v 5.35637 h 10.3 v 10.20743 h 18.7 v 9.60104 h 8.9 v 11.72337 h 7.8 c 0,-9.29785 4.6,-16.87762 10.3,-16.87762 5.7,0 10.3,7.57977 10.3,16.87762 z"
       id="path5057"
       inkscape:connector-curvature="0"
       style="fill:#bc428b;stroke-width:1.00530386" /><g
       id="building_4_shade"
       style="display:inline"><g
         id="g5079"><polygon
           class="st12"
           points="1124.1,235.6 1119.8,220.8 1127.2,235.6 "
           id="polygon5059"
           style="fill:#c45b9e" /><polygon
           class="st12"
           points="1165.3,699.8 1123.9,699.8 1123.9,235.6 1127.2,235.6 1127.2,253 1129.1,253 1129.1,269.9 1131.7,269.9 1131.7,239.3 1138.8,227.2 1145.9,239.3 1145.9,595 1165.3,595 "
           id="polygon5061"
           style="fill:#c45b9e" /><polygon
           class="st12"
           points="1065.8,239.3 1065.8,269.8 1063.1,269.8 1063.1,239.3 1060,228.2 "
           id="polygon5063"
           style="fill:#c45b9e" /><rect
           x="1084.5"
           y="250.39999"
           class="st12"
           width="1.6"
           height="19.4"
           id="rect5065"
           style="fill:#c45b9e" /><polygon
           class="st12"
           points="1084.5,250.4 1081.6,243.7 1086.1,250.4 "
           id="polygon5067"
           style="fill:#c45b9e" /><rect
           x="1102.9"
           y="254"
           class="st12"
           width="0.40000001"
           height="15.8"
           id="rect5069"
           style="fill:#c45b9e" /><polygon
           class="st12"
           points="1102.9,254 1100.1,248.9 1103.4,254 "
           id="polygon5071"
           style="fill:#c45b9e" /><rect
           x="1068.9"
           y="261.89999"
           class="st12"
           width="3.4000001"
           height="7.9000001"
           id="rect5073"
           style="fill:#c45b9e" /><rect
           x="1106.9"
           y="261.89999"
           class="st12"
           width="3"
           height="8"
           id="rect5075"
           style="fill:#c45b9e" /><polygon
           class="st12"
           points="1048,235.6 1048,254 1050.9,254 1050.9,269.8 1046.1,269.8 1046.1,235.6 1041.5,220.8 "
           id="polygon5077"
           style="fill:#c45b9e" /></g><polygon
         class="st11"
         points="842.3,699.9 842.3,699.8 857.1,699.8 857.1,700 "
         id="polygon5081"
         style="fill:#bc428b" /><polygon
         class="st11"
         points="847.9,393.9 842.3,387.1 858.9,387.1 858.9,426.5 854.7,423.9 854.7,402.3 "
         id="polygon5083"
         style="fill:#bc428b" /><polygon
         class="st12"
         points="858.9,413.5 858.8,413.5 858.9,387.1 "
         id="polygon5085"
         style="fill:#c45b9e" /><polygon
         class="st12"
         points="905.8,426.1 905.8,435.3 908.6,435.3 908.6,450.2 934.4,450.2 934.4,456.6 941.9,456.6 941.9,477.6 906.5,477.6 877.3,454.9 877.3,437.6 858.9,426.5 854.7,423.9 854.7,402.3 847.9,393.9 842.3,387.1 842.3,387 840.8,386.2 840,385.9 835.3,383.5 826.8,379.3 826.8,351.5 808.5,316.2 811.5,316.2 811.5,305.2 818.2,316.1 818.3,316.3 840,351.5 840,364.8 845.8,367.7 845.8,361.8 847.9,361.8 847.9,376.3 858.2,386.4 858.9,387.1 858.8,413.5 887.3,413.5 887.3,419.3 894.9,419.3 894.9,426.1 "
         id="polygon5087"
         style="fill:#c45b9e" /><rect
         x="854.70001"
         y="699.79999"
         class="st11"
         width="22.6"
         height="0.1"
         id="rect5089"
         style="fill:#bc428b" /><rect
         x="877.29999"
         y="699.79999"
         class="st11"
         width="29.200001"
         height="0.2"
         id="rect5091"
         style="fill:#bc428b" /><polygon
         class="st12"
         points="1544.6,430.2 1568.1,430.2 1568.1,699.9 1537.2,699.9 1537.2,423.2 1519.2,418.8 1544.6,418.8 "
         id="polygon5093"
         style="fill:#c45b9e" /><rect
         x="1323.7"
         y="544"
         class="st12"
         width="24.200001"
         height="155.8"
         id="rect5095"
         style="fill:#c45b9e" /><polygon
         class="st12"
         points="1301.2,535.3 1342.6,535.3 1342.6,544 1323.7,544 "
         id="polygon5097"
         style="fill:#c45b9e" /><polygon
         class="st13"
         points="765.9,377.3 765.9,376.3 766.6,376.3 "
         id="polygon5099"
         style="fill:#a0387b" /><polygon
         class="st14"
         points="709.1,478 718.3,478 718.3,472.6 747,472.6 747,460.3 754.4,460.3 754.4,376.3 765.9,376.3 765.9,377.3 766.6,376.3 765.9,376.3 765.9,361.8 768.8,361.8 768.8,364.1 774.2,364.1 770.1,370.7 770.1,460.3 747,486.8 747,699.9 718.3,699.9 718.3,699.8 701.7,699.8 701.7,514.4 709.1,514.4 "
         id="polygon5101"
         style="fill:#af388b" /><polygon
         class="st13"
         points="765.9,377.3 765.9,376.3 766.6,376.3 "
         id="polygon5103"
         style="fill:#a0387b" /><polygon
         class="st13"
         points="765.9,377.3 765.9,376.3 766.6,376.3 "
         id="polygon5105"
         style="fill:#a0387b" /><polygon
         class="st13"
         points="561.8,700.2 543.9,700.2 543.9,601.9 541.8,601.9 541.8,591.4 560.9,591.4 560.9,534.9 583.1,534.9 583.1,591.4 586.7,591.4 586.7,514.4 609.9,514.4 593,530 593,699.9 561.8,699.9 "
         id="polygon5107"
         style="fill:#a0387b" /><polygon
         class="st13"
         points="33.5,558.8 41.9,558.8 41.9,553.5 49,553.5 49,558.8 62.1,558.8 62.1,553.5 69.2,553.5 69.2,558.8 49.9,578.4 49.9,698.5 22.6,698.5 22.6,578.4 33.5,578.4 "
         id="polygon5109"
         style="fill:#a0387b"
         transform="matrix(1,0,0,1.0106359,0,-5.8869878)" /></g></g><g
     id="buildings_5"><rect
       x="1336.6"
       y="628"
       class="st15"
       width="61.700001"
       height="71.900002"
       id="rect5113"
       style="fill:#f44d69" /><polygon
       class="st15"
       points="1216.3,612.3 1216.3,628 1249.8,628 1249.8,612.3 1304.2,612.3 1304.2,699.8 1110,699.8 1110,612.3 1186.5,612.3 1186.5,603.6 1204.2,603.6 1204.2,612.3 "
       id="polygon5115"
       style="fill:#f44d69" /><polygon
       class="st15"
       points="1057.8,502.3 1057.8,504.6 1068.1,504.6 1068.1,502.3 1076.2,502.3 1076.2,699.8 925.2,699.8 925.2,504.6 938.5,504.6 938.5,491.1 987.2,491.1 987.2,498.8 1001,498.8 1001,504.6 1010.9,504.6 1010.9,498.8 1045,498.8 1045,504.6 1049.8,504.6 1049.8,502.3 "
       id="polygon5117"
       style="fill:#f44d69" /><polygon
       class="st15"
       points="820.5,540.5 820.5,550.2 823.7,550.2 823.7,541.1 826.7,541.1 826.7,550.2 834.8,550.2 834.8,560 906.7,560 906.7,699.8 798.3,699.8 798.3,560 812.7,560 812.7,550.2 816.5,550.2 816.5,540.5 "
       id="polygon5119"
       style="fill:#f44d69" /><polygon
       class="st15"
       points="770,542.7 770,699.8 602.4,699.8 602.4,542.7 623.9,542.7 623.9,529.2 654.2,529.2 654.2,542.7 "
       id="polygon5121"
       style="fill:#f44d69" /><path
       style="fill:#f44d69;stroke-width:1.12073338"
       d="m 259.2,554.13724 v -8.7923 h 8.9 V 541.2 h 50.7 v 4.14494 h -3.3 v 8.7923 h 5.9 V 699.96389 H 212.5 v -96.46414 h 9.2 V 598.978 h 14 v 4.52175 h 12.1 v -49.36251 z"
       id="polygon5125"
       inkscape:connector-curvature="0" /><path
       style="fill:#f44d69;stroke-width:1.11575472"
       d="m 338.2,542.86538 v -3.98371 h 16.5 v 3.98371 h 2.5 v -3.98371 h 5.9 v 3.98371 h 3.2 v -3.98371 h 16 v 3.98371 h 6.6 v -3.98371 h 14.3 v 3.98371 h 2.4 v -3.98371 h 5.5 v 3.98371 h 2.5 V 534.4 h 7.4 v 2.61432 h 11.1 v 5.85106 h 6.6 v 4.48166 h -2.5 v 63.11687 h 26 v 89.75792 H 334.3 V 547.34704 h -3.8 v -4.48166 z"
       id="polygon5129"
       inkscape:connector-curvature="0" /><path
       class="st15"
       d="M 553.2,590.87705 V 565.1 h -79.4 v 134.935 h 90.1 V 591.00857 h -10.7 z"
       id="path5133"
       inkscape:connector-curvature="0"
       style="fill:#f44d69;stroke-width:1.14680231" /><polygon
       class="st15"
       points="197.4,594.7 197.4,601.7 208.2,601.7 208.2,667.6 152.9,667.6 152.9,601.7 174.3,601.7 174.3,598.2 183,598.2 183,601.7 186.9,601.7 186.9,594.7 "
       id="polygon5143"
       style="fill:#f44d69"
       inkscape:label="polygon5143"
       transform="matrix(1,0,0,1.4431059,0,-263.51509)" /><rect
       style="fill:#f44d69;stroke-width:1.11785531"
       id="rect5335"
       height="50.541458"
       width="109.68256"
       class="st15"
       y="649.30072"
       x="1435.7227" /><g
       id="buildings_5_shading"
       style="display:inline"><polygon
         class="st16"
         points="1336.6,628 1398.3,628 1398.3,699.8 1386.2,699.8 1386.2,636.4 "
         id="polygon5145"
         style="fill:#f4718e" /><rect
         x="1289.4"
         y="612.29999"
         class="st16"
         width="14.8"
         height="87.5"
         id="rect5147"
         style="fill:#f4718e" /><polygon
         class="st16"
         points="1249.8,612.3 1289.4,612.3 1289.4,617.6 "
         id="polygon5149"
         style="fill:#f4718e" /><polygon
         class="st16"
         points="1202,605.1 1186.5,603.6 1204.2,603.6 1204.2,612.3 1216.3,612.3 1216.3,628 1215.2,614 1204.2,613.9 1202,613.9 "
         id="polygon5151"
         style="fill:#f4718e" /><polygon
         class="st17"
         points="1110,612.3 1186.5,612.3 1116.8,620.3 1116.8,699.8 1110,699.8 "
         id="polygon5153"
         style="fill:#e04163" /><polygon
         class="st18"
         points="938.4,504.6 938.4,491.1 987.2,491.1 987.2,498.8 1001,498.8 940.3,520.8 940.3,699.8 925.2,699.8 925.2,504.6 "
         id="polygon5155"
         style="fill:#e84669" /><polygon
         class="st16"
         points="1049.8,504.6 1049.8,502.3 1057.8,502.3 1057.8,504.6 1068.1,504.6 1068.1,502.3 1076.2,502.3 1076.2,699.8 1068.1,699.8 1068.1,511.5 1045,504.6 "
         id="polygon5157"
         style="fill:#f4718e" /><polygon
         class="st16"
         points="826.7,541.1 826.7,550.2 834.8,550.2 834.8,560 906.7,560 906.7,699.8 883.5,699.8 883.5,577 834.8,565.9 830.3,560 812.7,560 812.7,550.2 816.5,550.2 816.5,540.5 820.5,540.5 820.5,550.2 823.7,550.2 823.7,541.1 "
         id="polygon5159"
         style="fill:#f4718e" /><polygon
         class="st19"
         points="645.2,543.9 645.2,529.2 654.2,529.2 654.2,542.7 770,542.7 770,699.8 745.8,699.8 745.8,553.3 654.2,553.3 "
         id="polygon5161"
         style="fill:#ef5b7b" /><polygon
         class="st17"
         points="623.9,542.7 610.5,548.2 610.5,698.3 602.4,698.3 602.4,542.7 "
         id="polygon5163"
         style="fill:#e04163"
         transform="matrix(1,0,0,1.0096401,0,-5.2316838)" /><path
         style="fill:#f4718e;stroke-width:1.17866719"
         d="m 553.20001,584.70001 h 10.7 v 115.16934 h -10.7 z"
         id="rect5165"
         inkscape:connector-curvature="0" /><polygon
         class="st16"
         points="547.3,590.1 553.2,595.8 553.2,565.1 547.3,565.1 "
         id="polygon5167"
         style="fill:#f4718e" /><path
         style="fill:#e04163;stroke-width:1.11879921"
         d="M 349,700.22183 H 334.3 V 546.51164 h -3.8 v -4.50616 h 7.7 V 538 h 16.5 l -5.7,8.51164 z"
         id="polygon5169"
         inkscape:connector-curvature="0" /><path
         style="fill:#e04163;stroke-width:1.18428719"
         d="m 232.2,609.07956 h -0.1 v 90.88433 H 212.5 V 592.24913 h 9.2 V 587.2 h 14 v 5.04913 h 12 z"
         id="polygon5171"
         inkscape:connector-curvature="0" /><path
         style="fill:#f4718e;stroke-width:1.12073338"
         d="M 315.4,699.96389 V 566.19526 l -8.7,-20.85032 H 268.1 V 541.2 h 50.7 v 4.14494 h -3.4 v 8.7923 h 6 v 145.82665 z"
         id="polygon5173"
         inkscape:connector-curvature="0" /><path
         style="fill:#e04163;stroke-width:1.21055877"
         d="m 174.3,598.2 h 2.7 v 9.08581 l -14.2,6.44799 v 86.16861 h -9.9 v -96.57332 h 21.4 z"
         id="polygon5175"
         inkscape:connector-curvature="0" /><path
         style="fill:#f4718e;stroke-width:1.16984296"
         d="M 1435.8007,648.27448 H 1549.3 v 51.15933 l -3.8947,0.60111 -0.098,-47.76787 z"
         id="polygon5337"
         inkscape:connector-curvature="0"
         sodipodi:nodetypes="cccccc" /><polygon
         style="fill:#e04163"
         id="polygon5340"
         points="1110,699.8 1110,612.3 1186.5,612.3 1116.8,620.3 1116.8,699.8 "
         class="st17"
         transform="matrix(1,0,0,0.58856441,325.72266,287.77199)" /></g></g><g
     id="bridges"
     style="display:inline"><g
       id="g5362"
       inkscape:label="rivers"><rect
         style="fill:#145182"
         x="0"
         id="rect4981"
         height="39.599998"
         width="600.20001"
         class="st6"
         y="660.5" /><rect
         style="fill:#145182"
         id="rect4979"
         height="29"
         width="425.89999"
         class="st6"
         y="671.40002"
         x="1574.1" /></g><g
       id="g5187"><path
         class="st21"
         d="m 2000,638.5 v -3.7 h -101.8 v -12.1 h -1.8 v 12.1 h -15.3 v -21.2 h -1.8 v 21.2 h -15.5 v -30.6 h -1.7 v 30.6 h -16.9 v -36 h -1.7 v 36 h -15 v -39.6 h -2.6 v 39.6 h -13.6 v -43.2 h -3.4 v 43.2 h -15.5 v -44.3 h -3.4 v 44.3 h -14 v -45.2 h -3.4 v 45.2 h -13.1 v -44.3 h -3.4 v 44.3 h -14.9 v -43.2 h -3.4 v 43.2 H 1724 v -39.6 h -2.6 v 39.6 h -15.3 v -36 h -1.8 v 36 h -17.5 v -29.5 h -1.8 v 29.5 h -14.9 v -20.6 h -1.8 v 20.6 h -15.1 v -10.3 h -1.7 v 10.3 h -85.3 v 3.7 h 30.4 v 9.7 h -30.4 v 7.4 h 43.1 V 700 h 14.4 v -44.4 h 302.2 v 14.4 0 30.2 h 14.4 v -30.2 0 -14.4 h 59.6 v -7.4 h -47.6 v -9.7 z m -398.1,9.6 v -9.7 h 12.4 l -10.5,9.7 z m 4.6,0 9.2,-8.5 v 8.5 z m 11.4,0 v -8.7 l 8.7,8.7 z m 12.9,0 h -1.6 l -9.7,-9.7 h 11.3 z m 5.1,0 v -9.7 h 14.4 l -10.5,9.7 z m 15.8,0 h -9 l 9,-8.3 z m 1.7,0 v -8.4 l 8.4,8.4 z m 15.1,0 h -4 l -9.7,-9.7 h 13.7 z m 1.7,0 v -9.7 h 13.6 l -10.5,9.7 z m 15,0 h -9.1 l 9.1,-8.4 z m 1.7,0 v -8.6 l 9.4,8.6 z m 17.5,0 h -5.3 l -10.6,-9.7 h 15.9 z m 1.7,0 v -9.7 h 13.8 l -10.5,9.7 z m 15.3,0 h -9.2 l 9.2,-8.5 z m 2.7,0 v -8.3 l 9.1,8.3 z m 13.8,0 h -2 l -10.6,-9.7 h 12.5 v 9.7 z m 3.4,0 v -9.7 h 13.6 l -10.5,9.7 z m 14.9,0 h -9.1 l 9.1,-8.3 z m 3.4,0 v -8.2 l 9,8.2 z m 13.1,0 h -1.4 l -10.6,-9.7 h 11.9 v 9.7 z m 3.4,0 v -9.7 h 13.1 l -10.5,9.7 z m 14,0 h -8.6 l 8.6,-7.9 z m 3.3,0 v -8.4 l 9.2,8.4 z m 15.5,0 h -3.5 l -10.6,-9.7 h 14.1 z m 3.4,0 v -9.7 h 12.9 l -10.5,9.7 z m 13.6,0 h -8.5 l 8.5,-7.9 z m 2.7,0 v -8.2 l 9,8.2 z m 14.9,0 h -3.2 l -10.6,-9.7 h 13.8 z m 1.8,0 v -9.7 h 15.6 l -10.5,9.7 z m 16.9,0 h -9 l 9,-8.3 z m 1.7,0 v -8.2 l 9,8.2 z m 15.5,0 h -3.8 l -10.5,-9.7 h 14.3 z m 1.8,0 v -9.7 h 14 l -10.5,9.7 z m 15.3,0 h -9 l 9,-8.3 z m 1.7,0 v -8.3 l 9,8.3 z m 14.6,0 h -2.8 l -10.6,-9.7 h 13.4 z m 5.1,0 v -9.7 h 12.9 l -10.5,9.7 z m 14.2,0 h -9.1 l 9.1,-8.3 z m 2.2,0 v -8.3 l 9.1,8.3 z m 13,0 h -1.2 l -10.6,-9.7 h 11.7 v 9.7 z"
         id="path5181"
         inkscape:connector-curvature="0"
         style="fill:#ffcc3e" /><path
         class="st22"
         d="m 1597.9,636.7 c 21.7,-18.7 43.2,-28.9 64.4,-37.8 10.2,-4 31.8,-10.8 48.5,-14.3 23.4,-3.8 42.8,-6 65.2,-5.4 0,0 24.6,-0.2 53.1,4.6 19,3 40.1,9.3 55.9,15.2 39.3,14.7 65.6,36.8 66.4,37.7"
         id="path5183"
         inkscape:connector-curvature="0"
         style="fill:none;stroke:#ffcc3e;stroke-width:5;stroke-miterlimit:10" /><path
         class="st22"
         d="m 1630.8,638.5 c 24.5,-21 50.4,-34.8 78.4,-41.8 26.4,-6.6 54.7,-7.1 80.8,-6.2 9,0.3 40.2,3.3 65.4,11.7 24.2,8 42.3,21.3 47.1,24.2 6.4,3.9 13.9,10.6 15.4,12.2"
         id="path5185"
         inkscape:connector-curvature="0"
         style="fill:none;stroke:#ffcc3e;stroke-width:5;stroke-miterlimit:10" /></g><g
       id="g5297"><polygon
         class="st21"
         points="93.7,641.6 184.9,641.6 184.9,551.2 197.8,551.2 197.8,641.6 500,641.6 500,551.2 512.9,551.2 512.9,641.6 584.7,641.6 584.7,653.9 512.9,653.9 512.9,698.5 500,698.5 500,653.9 197.8,653.9 197.8,698.5 184.9,698.5 184.9,653.9 93.7,653.9 "
         id="polygon5189"
         style="fill:#ffcc3e" /><path
         class="st23"
         d="m 505.6,557.3 c -84.8,87.4 -226.3,87.4 -316.5,0"
         id="path5191"
         inkscape:connector-curvature="0"
         style="fill:none;stroke:#ffcc33;stroke-width:7;stroke-miterlimit:10" /><path
         class="st23"
         d="m 184.9,551.2 c -0.4,42.5 -41.2,76.5 -91.3,76.1"
         id="path5193"
         inkscape:connector-curvature="0"
         style="fill:none;stroke:#ffcc33;stroke-width:7;stroke-miterlimit:10" /><path
         class="st23"
         d="m 512.9,551.2 c 0.4,42.4 32.5,76.4 71.8,76.1"
         id="path5195"
         inkscape:connector-curvature="0"
         style="fill:none;stroke:#ffcc33;stroke-width:7;stroke-miterlimit:10" /><rect
         x="172.60001"
         y="589.29999"
         class="st21"
         width="2.7"
         height="52.299999"
         id="rect5197"
         style="fill:#ffcc3e" /><rect
         x="522.79999"
         y="594.09998"
         class="st21"
         width="2.7"
         height="47.5"
         id="rect5199"
         style="fill:#ffcc3e" /><rect
         x="531.59998"
         y="605.29999"
         class="st21"
         width="2.5999999"
         height="36.299999"
         id="rect5201"
         style="fill:#ffcc3e" /><rect
         x="540.5"
         y="610.70001"
         class="st21"
         width="2.7"
         height="31"
         id="rect5203"
         style="fill:#ffcc3e" /><rect
         x="549.40002"
         y="618.5"
         class="st21"
         width="2.7"
         height="23.1"
         id="rect5205"
         style="fill:#ffcc3e" /><rect
         x="206.39999"
         y="570.20001"
         class="st21"
         width="2.7"
         height="71.400002"
         id="rect5207"
         style="fill:#ffcc3e" /><rect
         x="217.2"
         y="580.79999"
         class="st21"
         width="2.7"
         height="60.799999"
         id="rect5209"
         style="fill:#ffcc3e" /><rect
         x="226.60001"
         y="587"
         class="st21"
         width="2.7"
         height="54.599998"
         id="rect5211"
         style="fill:#ffcc3e" /><rect
         x="236.2"
         y="592.09998"
         class="st21"
         width="2.7"
         height="49.5"
         id="rect5213"
         style="fill:#ffcc3e" /><rect
         x="245.8"
         y="598.59998"
         class="st21"
         width="2.7"
         height="43"
         id="rect5215"
         style="fill:#ffcc3e" /><rect
         x="253.3"
         y="601.40002"
         class="st21"
         width="2.7"
         height="40.200001"
         id="rect5217"
         style="fill:#ffcc3e" /><rect
         x="259.79999"
         y="604.20001"
         class="st21"
         width="2.7"
         height="37.5"
         id="rect5219"
         style="fill:#ffcc3e" /><rect
         x="267.20001"
         y="607.40002"
         class="st21"
         width="2.7"
         height="34.200001"
         id="rect5221"
         style="fill:#ffcc3e" /><rect
         x="274.20001"
         y="609.79999"
         class="st21"
         width="2.7"
         height="31.799999"
         id="rect5223"
         style="fill:#ffcc3e" /><rect
         x="280.39999"
         y="612.09998"
         class="st21"
         width="2.7"
         height="29.5"
         id="rect5225"
         style="fill:#ffcc3e" /><rect
         x="288.79999"
         y="614.5"
         class="st21"
         width="2.7"
         height="27.1"
         id="rect5227"
         style="fill:#ffcc3e" /><rect
         x="296.5"
         y="616.40002"
         class="st21"
         width="2.7"
         height="25.200001"
         id="rect5229"
         style="fill:#ffcc3e" /><rect
         x="302.79999"
         y="617.29999"
         class="st21"
         width="2.7"
         height="24.299999"
         id="rect5231"
         style="fill:#ffcc3e" /><rect
         x="310.39999"
         y="619.40002"
         class="st21"
         width="2.7"
         height="22.200001"
         id="rect5233"
         style="fill:#ffcc3e" /><rect
         x="317.70001"
         y="619.40002"
         class="st21"
         width="2.7"
         height="22.200001"
         id="rect5235"
         style="fill:#ffcc3e" /><rect
         x="325.79999"
         y="620"
         class="st21"
         width="2.7"
         height="21.6"
         id="rect5237"
         style="fill:#ffcc3e" /><rect
         x="334"
         y="622.20001"
         class="st21"
         width="2.7"
         height="19.4"
         id="rect5239"
         style="fill:#ffcc3e" /><rect
         x="342.29999"
         y="622.79999"
         class="st21"
         width="2.7"
         height="18.799999"
         id="rect5241"
         style="fill:#ffcc3e" /><rect
         x="350.29999"
         y="620.90002"
         class="st21"
         width="2.7"
         height="20.700001"
         id="rect5243"
         style="fill:#ffcc3e" /><rect
         x="357.79999"
         y="622.20001"
         class="st21"
         width="2.7"
         height="19.4"
         id="rect5245"
         style="fill:#ffcc3e" /><rect
         x="366.5"
         y="620.90002"
         class="st21"
         width="2.7"
         height="20.700001"
         id="rect5247"
         style="fill:#ffcc3e" /><rect
         x="375.20001"
         y="621.79999"
         class="st21"
         width="2.7"
         height="19.799999"
         id="rect5249"
         style="fill:#ffcc3e" /><rect
         x="382.10001"
         y="619.20001"
         class="st21"
         width="2.7"
         height="22.4"
         id="rect5251"
         style="fill:#ffcc3e" /><rect
         x="390.5"
         y="617.79999"
         class="st21"
         width="2.7"
         height="23.799999"
         id="rect5253"
         style="fill:#ffcc3e" /><rect
         x="397.89999"
         y="616.90002"
         class="st21"
         width="2.7"
         height="24.700001"
         id="rect5255"
         style="fill:#ffcc3e" /><rect
         x="406.29999"
         y="614.90002"
         class="st21"
         width="2.7"
         height="26.700001"
         id="rect5257"
         style="fill:#ffcc3e" /><rect
         x="413.10001"
         y="612.29999"
         class="st21"
         width="2.7"
         height="29.299999"
         id="rect5259"
         style="fill:#ffcc3e" /><rect
         x="421.20001"
         y="610.40002"
         class="st21"
         width="2.7"
         height="31.200001"
         id="rect5261"
         style="fill:#ffcc3e" /><rect
         x="429"
         y="605.29999"
         class="st21"
         width="2.7"
         height="36.299999"
         id="rect5263"
         style="fill:#ffcc3e" /><rect
         x="436.39999"
         y="604.79999"
         class="st21"
         width="2.7"
         height="36.799999"
         id="rect5265"
         style="fill:#ffcc3e" /><rect
         x="445.39999"
         y="599.09998"
         class="st21"
         width="2.7"
         height="42.5"
         id="rect5267"
         style="fill:#ffcc3e" /><rect
         x="453.29999"
         y="594.70001"
         class="st21"
         width="2.7"
         height="46.900002"
         id="rect5269"
         style="fill:#ffcc3e" /><rect
         x="461.60001"
         y="589.70001"
         class="st21"
         width="2.7"
         height="52"
         id="rect5271"
         style="fill:#ffcc3e" /><rect
         x="470.20001"
         y="585.29999"
         class="st21"
         width="2.7"
         height="56.299999"
         id="rect5273"
         style="fill:#ffcc3e" /><rect
         x="478.60001"
         y="578.09998"
         class="st21"
         width="2.7"
         height="63.5"
         id="rect5275"
         style="fill:#ffcc3e" /><rect
         x="488.70001"
         y="570.20001"
         class="st21"
         width="2.7"
         height="71.400002"
         id="rect5277"
         style="fill:#ffcc3e" /><rect
         x="162.2"
         y="599.79999"
         class="st21"
         width="2.7"
         height="41.799999"
         id="rect5279"
         style="fill:#ffcc3e" /><rect
         x="151.8"
         y="611.90002"
         class="st21"
         width="2.7"
         height="29.700001"
         id="rect5281"
         style="fill:#ffcc3e" /><rect
         x="141.5"
         y="615.40002"
         class="st21"
         width="2.7"
         height="26.200001"
         id="rect5283"
         style="fill:#ffcc3e" /><rect
         x="131"
         y="621.20001"
         class="st21"
         width="2.7"
         height="20.4"
         id="rect5285"
         style="fill:#ffcc3e" /><rect
         x="120.7"
         y="623.09998"
         class="st21"
         width="2.7"
         height="18.5"
         id="rect5287"
         style="fill:#ffcc3e" /><rect
         x="110.2"
         y="625.40002"
         class="st21"
         width="2.7"
         height="16.200001"
         id="rect5289"
         style="fill:#ffcc3e" /><rect
         x="558.20001"
         y="620.5"
         class="st21"
         width="2.7"
         height="21.1"
         id="rect5291"
         style="fill:#ffcc3e" /><rect
         x="567.09998"
         y="623.70001"
         class="st21"
         width="2.7"
         height="17.9"
         id="rect5293"
         style="fill:#ffcc3e" /><rect
         x="576"
         y="623.70001"
         class="st21"
         width="2.7"
         height="17.9"
         id="rect5295"
         style="fill:#ffcc3e" /></g></g></svg>